<svg width="138" height="138" viewBox="0 0 138 138" fill="none" xmlns="http://www.w3.org/2000/svg">
<rect width="138" height="138" rx="32" fill="black"/>
<path d="M49.12 92.12C40.96 92.12 34.96 87.48 34.96 81C34.96 73.64 40 69.8 48.24 68.52L62.16 66.2C64.08 65.96 64.48 65.16 64.48 63.8V63.08C64.48 58.12 60 54.36 53.68 54.36C48.64 54.36 43.84 56.52 42.16 61.32H36.72C38.4 54.76 44.56 49.88 53.76 49.88C63.2 49.88 69.84 55 69.84 62.76V82.04C69.84 86.04 70.64 90.6 71.44 91H65.84C65.28 89.56 64.88 87 64.8 85.24H64.48C60.64 90.36 54.32 92.12 49.12 92.12ZM49.84 87.96C57.28 87.96 64.48 83.56 64.48 77.56V69.96L49.68 72.36C43.44 73.4 40.16 75.88 40.16 80.92C40.16 85 44.32 87.96 49.84 87.96Z" fill="#FEFAF6"/>
<path d="M84.1741 91.12C73.0541 91.12 64.7341 82.4 64.7341 70.88V69.12C64.7341 57.76 73.1341 48.88 84.1741 48.88C95.6141 48.88 103.614 57.28 103.614 69.12V70.64H70.0141V71.28C70.0141 80.24 76.0141 86.8 84.1741 86.8C90.0941 86.8 95.2141 83.2 97.3741 77.28H102.654C100.414 85.68 93.2141 91.12 84.1741 91.12ZM70.0141 66.56H98.3341C97.2141 58.64 91.3741 53.12 84.1741 53.12C77.0541 53.12 71.1341 58.64 70.0141 66.56Z" fill="#FEFAF6"/>
</svg>
